<svg width="24" height="24" viewBox="0 0 24 24" fill="none" xmlns="http://www.w3.org/2000/svg">
    <rect width="24" height="24" fill="black" fill-opacity="0"></rect>
    <rect x="3" y="6" width="18" height="14" fill="#FFCA28"></rect>
    <rect x="2" y="4" width="20" height="16" rx="2" fill="#96EF83"></rect>
    <path d="M2 4H22V20H2V4ZM20 18V6H4V18H20ZM17 7C17 7.53043 17.2107 8.03914 17.5858 8.41421C17.9609 8.78929 18.4696 9 19 9V15C18.4696 15 17.9609 15.2107 17.5858 15.5858C17.2107 15.9609 17 16.4696 17 17H7C7 16.4696 6.78929 15.9609 6.41421 15.5858C6.03914 15.2107 5.53043 15 5 15V9C5.53043 9 6.03914 8.78929 6.41421 8.41421C6.78929 8.03914 7 7.53043 7 7H17ZM17 12.5V11.5C17 10.4 16.33 9.5 15.5 9.5C14.67 9.5 14 10.4 14 11.5V12.5C14 13.6 14.67 14.5 15.5 14.5C16.33 14.5 17 13.6 17 12.5ZM15.5 10.5C15.6326 10.5 15.7598 10.5527 15.8536 10.6464C15.9473 10.7402 16 10.8674 16 11V13C16 13.1326 15.9473 13.2598 15.8536 13.3536C15.7598 13.4473 15.6326 13.5 15.5 13.5C15.3674 13.5 15.2402 13.4473 15.1464 13.3536C15.0527 13.2598 15 13.1326 15 13V11C15 10.8674 15.0527 10.7402 15.1464 10.6464C15.2402 10.5527 15.3674 10.5 15.5 10.5ZM13 12.5V11.5C13 10.4 12.33 9.5 11.5 9.5C10.67 9.5 10 10.4 10 11.5V12.5C10 13.6 10.67 14.5 11.5 14.5C12.33 14.5 13 13.6 13 12.5ZM11.5 10.5C11.6326 10.5 11.7598 10.5527 11.8536 10.6464C11.9473 10.7402 12 10.8674 12 11V13C12 13.1326 11.9473 13.2598 11.8536 13.3536C11.7598 13.4473 11.6326 13.5 11.5 13.5C11.3674 13.5 11.2402 13.4473 11.1464 13.3536C11.0527 13.2598 11 13.1326 11 13V11C11 10.8674 11.0527 10.7402 11.1464 10.6464C11.2402 10.5527 11.3674 10.5 11.5 10.5ZM8 14.5H9V9.5H8L7 10V11L8 10.5V14.5Z" fill="#00A660"></path>
</svg>